<mxfile host="Electron" agent="Mozilla/5.0 (Windows NT 10.0; Win64; x64) AppleWebKit/537.36 (KHTML, like Gecko) draw.io/27.0.2 Chrome/134.0.6998.205 Electron/35.3.0 Safari/537.36" version="27.0.2">
  <diagram name="第 1 页" id="s8Q9pIoA7zE9mY9YPFIc">
    <mxGraphModel dx="1025" dy="596" grid="1" gridSize="10" guides="1" tooltips="1" connect="1" arrows="1" fold="1" page="1" pageScale="1" pageWidth="827" pageHeight="1169" math="0" shadow="0">
      <root>
        <mxCell id="0" />
        <mxCell id="1" parent="0" />
        <mxCell id="Q10lDZb6qQ8xHQ4JrgQ--1" value="&lt;font style=&quot;font-size: 18px;&quot;&gt;日記之森&lt;/font&gt;" style="html=1;dropTarget=0;whiteSpace=wrap;" vertex="1" parent="1">
          <mxGeometry x="310" y="100" width="180" height="90" as="geometry" />
        </mxCell>
        <mxCell id="Q10lDZb6qQ8xHQ4JrgQ--2" value="" style="shape=module;jettyWidth=8;jettyHeight=4;" vertex="1" parent="Q10lDZb6qQ8xHQ4JrgQ--1">
          <mxGeometry x="1" width="20" height="20" relative="1" as="geometry">
            <mxPoint x="-27" y="7" as="offset" />
          </mxGeometry>
        </mxCell>
        <mxCell id="Q10lDZb6qQ8xHQ4JrgQ--3" value="«Annotation»&lt;br&gt;&lt;b&gt;登入&lt;/b&gt;" style="html=1;dropTarget=0;whiteSpace=wrap;" vertex="1" parent="1">
          <mxGeometry x="120" y="230" width="180" height="90" as="geometry" />
        </mxCell>
        <mxCell id="Q10lDZb6qQ8xHQ4JrgQ--4" value="" style="shape=module;jettyWidth=8;jettyHeight=4;" vertex="1" parent="Q10lDZb6qQ8xHQ4JrgQ--3">
          <mxGeometry x="1" width="20" height="20" relative="1" as="geometry">
            <mxPoint x="-27" y="7" as="offset" />
          </mxGeometry>
        </mxCell>
        <mxCell id="Q10lDZb6qQ8xHQ4JrgQ--5" value="&amp;laquo;Annotation&amp;raquo;&lt;br/&gt;&lt;b&gt;Component&lt;/b&gt;" style="html=1;dropTarget=0;whiteSpace=wrap;" vertex="1" parent="1">
          <mxGeometry x="550" y="290" width="180" height="90" as="geometry" />
        </mxCell>
        <mxCell id="Q10lDZb6qQ8xHQ4JrgQ--6" value="" style="shape=module;jettyWidth=8;jettyHeight=4;" vertex="1" parent="Q10lDZb6qQ8xHQ4JrgQ--5">
          <mxGeometry x="1" width="20" height="20" relative="1" as="geometry">
            <mxPoint x="-27" y="7" as="offset" />
          </mxGeometry>
        </mxCell>
      </root>
    </mxGraphModel>
  </diagram>
</mxfile>
